<mxfile host="app.diagrams.net" modified="2024-06-04T02:12:26.792Z" agent="Mozilla/5.0 (Windows NT 10.0; Win64; x64) AppleWebKit/537.36 (KHTML, like Gecko) Chrome/125.0.0.0 Safari/537.36" etag="Af5SsQDbnlzdgiNPwU83" version="24.4.13" type="github">
  <diagram name="第 1 页" id="nG7eB1WqaGk61vkmle3Y">
    <mxGraphModel dx="1836" dy="893" grid="0" gridSize="10" guides="1" tooltips="1" connect="1" arrows="1" fold="1" page="0" pageScale="1" pageWidth="827" pageHeight="1169" math="0" shadow="0">
      <root>
        <mxCell id="0" />
        <mxCell id="1" parent="0" />
        <mxCell id="Dn1cdoSrZXoZaSc35mQp-1" style="edgeStyle=orthogonalEdgeStyle;rounded=0;orthogonalLoop=1;jettySize=auto;html=1;exitX=0.5;exitY=1;exitDx=0;exitDy=0;entryX=0.5;entryY=0;entryDx=0;entryDy=0;" parent="1" source="Dn1cdoSrZXoZaSc35mQp-13" target="Dn1cdoSrZXoZaSc35mQp-5" edge="1">
          <mxGeometry relative="1" as="geometry">
            <mxPoint x="417" y="460" as="sourcePoint" />
          </mxGeometry>
        </mxCell>
        <mxCell id="Dn1cdoSrZXoZaSc35mQp-2" style="edgeStyle=orthogonalEdgeStyle;rounded=0;orthogonalLoop=1;jettySize=auto;html=1;exitX=1;exitY=0.5;exitDx=0;exitDy=0;entryX=0;entryY=0.5;entryDx=0;entryDy=0;" parent="1" source="Dn1cdoSrZXoZaSc35mQp-3" target="Dn1cdoSrZXoZaSc35mQp-5" edge="1">
          <mxGeometry relative="1" as="geometry" />
        </mxCell>
        <mxCell id="Dn1cdoSrZXoZaSc35mQp-3" value="音频数据流分块" style="rounded=1;whiteSpace=wrap;html=1;fontStyle=1;fillColor=#FFE6CC;strokeColor=#FFE6CC;shadow=1;align=center;verticalAlign=middle;fontFamily=Helvetica;fontSize=12;fontColor=default;" parent="1" vertex="1">
          <mxGeometry x="217" y="500" width="120" height="60" as="geometry" />
        </mxCell>
        <mxCell id="Dn1cdoSrZXoZaSc35mQp-4" style="edgeStyle=orthogonalEdgeStyle;rounded=0;orthogonalLoop=1;jettySize=auto;html=1;entryX=0;entryY=0.5;entryDx=0;entryDy=0;" parent="1" source="Dn1cdoSrZXoZaSc35mQp-5" target="Dn1cdoSrZXoZaSc35mQp-9" edge="1">
          <mxGeometry relative="1" as="geometry" />
        </mxCell>
        <mxCell id="Dn1cdoSrZXoZaSc35mQp-5" value="" style="shape=orEllipse;perimeter=ellipsePerimeter;whiteSpace=wrap;html=1;backgroundOutline=1;" parent="1" vertex="1">
          <mxGeometry x="407" y="520" width="20" height="20" as="geometry" />
        </mxCell>
        <mxCell id="Dn1cdoSrZXoZaSc35mQp-6" style="edgeStyle=orthogonalEdgeStyle;rounded=0;orthogonalLoop=1;jettySize=auto;html=1;entryX=0;entryY=0.5;entryDx=0;entryDy=0;" parent="1" source="Dn1cdoSrZXoZaSc35mQp-7" target="Dn1cdoSrZXoZaSc35mQp-3" edge="1">
          <mxGeometry relative="1" as="geometry" />
        </mxCell>
        <mxCell id="Dn1cdoSrZXoZaSc35mQp-7" value="麦克风获取音频输入" style="rounded=1;whiteSpace=wrap;html=1;fontStyle=1;fillColor=#ffe6cc;strokeColor=#FFE6CC;shadow=1;" parent="1" vertex="1">
          <mxGeometry x="57" y="500" width="120" height="60" as="geometry" />
        </mxCell>
        <mxCell id="Dn1cdoSrZXoZaSc35mQp-8" style="edgeStyle=orthogonalEdgeStyle;rounded=0;orthogonalLoop=1;jettySize=auto;html=1;exitX=0.5;exitY=0;exitDx=0;exitDy=0;entryX=0.5;entryY=1;entryDx=0;entryDy=0;" parent="1" source="Dn1cdoSrZXoZaSc35mQp-9" target="Dn1cdoSrZXoZaSc35mQp-34" edge="1">
          <mxGeometry relative="1" as="geometry" />
        </mxCell>
        <mxCell id="Dn1cdoSrZXoZaSc35mQp-9" value="输出数据块拼接" style="rounded=1;whiteSpace=wrap;html=1;fontStyle=1;fillColor=#d5e8d4;strokeColor=#D5E8D4;shadow=1;" parent="1" vertex="1">
          <mxGeometry x="490" y="499.30999999999995" width="120" height="60" as="geometry" />
        </mxCell>
        <mxCell id="Dn1cdoSrZXoZaSc35mQp-10" value="目标进程" style="rounded=1;whiteSpace=wrap;html=1;fontStyle=1;fillColor=#D5E8D4;strokeColor=#D5E8D4;shadow=1;" parent="1" vertex="1">
          <mxGeometry x="650" y="499.30999999999995" width="120" height="60" as="geometry" />
        </mxCell>
        <mxCell id="Dn1cdoSrZXoZaSc35mQp-11" style="edgeStyle=orthogonalEdgeStyle;rounded=0;orthogonalLoop=1;jettySize=auto;html=1;exitX=1;exitY=0.5;exitDx=0;exitDy=0;" parent="1" source="Dn1cdoSrZXoZaSc35mQp-12" target="Dn1cdoSrZXoZaSc35mQp-13" edge="1">
          <mxGeometry relative="1" as="geometry">
            <mxPoint x="357" y="420" as="targetPoint" />
          </mxGeometry>
        </mxCell>
        <mxCell id="Dn1cdoSrZXoZaSc35mQp-12" value="双阶段动态生成" style="rounded=1;whiteSpace=wrap;html=1;fontStyle=1;fillColor=#DAE8FC;strokeColor=#DAE8FC;shadow=1;" parent="1" vertex="1">
          <mxGeometry x="217" y="390" width="120" height="60" as="geometry" />
        </mxCell>
        <mxCell id="Dn1cdoSrZXoZaSc35mQp-13" value="" style="shape=image;verticalLabelPosition=bottom;labelBackgroundColor=default;verticalAlign=top;aspect=fixed;imageAspect=0;image=data:image/png,iVBORw0KGgoAAAANSUhEUgAAAMgAAADICAYAAACtWK6eAAAAAXNSR0IArs4c6QAADZBJREFUeF7tnW2MXFUZx58zu91VSlEhWKKlc6dz75bsyrbpVg0lMfSDJbxUqFglUYxfpBVT40v6wfLBEkNNpIkGIpb6xQgmyIu8FFDxg40JEJWt7eJu6N4znbulEpoGlJei2+7MsdOydenOzpzn7p3dZ87577fNPOfOc3//89tz7rzcVYQfEACBGQkosAEBEJiZAATB7ACBBgQgCKYHCEAQzAEQSEcAK0g6bhjlCQEI4knQOM10BCBIOm4Y5QkBCOJJ0DjNdAQgSDpuGOUJAQjiSdA4zXQEIEg6bhjlCQEI4knQOM10BCBIOm4Y5QkBCOJJ0DjNdAQgSDpuGOUJAQjiSdA4zXQEIEg6bhjlCQEI4knQOM10BCBIOm4Y5QkBCOJJ0DjNdAQgSDpuGOUJAQjiSdA4zXQEIEg6bhjlCQEI4knQOM10BCBIOm4Y5QkBCOJJ0DjNdAQgSDpuGOUJAQjiSdA4zXQEIEg6bhjlCQEI4knQOM10BCBIOm4Y5QkBCOJJ0DjNdAQgSDpuGOUJAQjiSdA4zXQEIEg6bhjlCQEI4knQOM10BCBIOm6nRy0Nw94Ooj5DtISI/t5JNKy1PjaLQ2KoMAIQJEUg+WLPNUqZHxLRwLThinYncbwpxWExRCABCMIMpRCGGw2ph5oNS3QMts0gtcHjCJERUqFQWGw6Ol+zGaIMbS2X4p02taiRSwCCMLIphOFOQ+p7tkNUZeKScrl81LYedfIIQBBGJkEY/YmIrrIdoshcXdb6Wdt61MkjAEEYmQRh9BYRLbIdgm2WLSm5dRCEkU0QRoZRTkTmjkTr7bwxqJZEAIIw0oAgDFiOlEIQRpAQhAHLkVIIwggSgjBgOVIKQRhBQhAGLEdKIQgjSAjCgOVIKQRhBAlBGLAcKYUgjCAhCAOWI6UQhBEkBGHAcqQUgjCChCAMWI6UQhBGkBCEAcuRUgjCCBKCMGA5UgpBGEFCEAYsR0ohCCNICMKA5UgpBGEECUEYsBwphSCMICEIA5YjpRCEESQEYcBypBSCMIKEIAxYjpR6J0gQXBaYXLVX5aqfMtXcX1U1N5IkLyc2ebZKkMWL+xcuXPjf3kqu2l/ro6OaGzp+/AMjR48OHbfpCzWtI+CNIEv6+i7sHD/xSyJaXwfnnonurq8dGR5+oxHqVggShOF2IvV1IvrYOc/9KpH5Bb6y27rJb3NkLwSxvZ9Vs9v0ZC1IPux5SJHZ2CgoQ+rhMT36RZswUZM9AS8EsZmINbTNJmOWghTCcJ0h9QebSHH7IBtKralxXpB8FN2kDD1ii88o+sJYHD9arz5LQYIwep6IrrDs64VEx2ssa1GWIQHnBSmE4Z2G1DZbZorMjrLWt7dSkN7e3q53T5x8m4i6LPs6cV7XgkUjIyMnLOtRlhEB9wUpRk8ZRdfZ8lKGni6X4utbKciyZctXV3PVv9n2VKvLVXOfPHTo4IucMVnUBkHwYersXEkTE/uTJPl3Fsdsp2M4Lwj3dqGnbi26N9Hx2lYKEoThVUSqdhtTxo9Zm2i9lzFgVqXvvbp2AxGtnHKg/UTmCZ9eWYMg06eR94IEYfTPOi87TyX1aqLjj8/KwDYZDEEgyPsIvLdy/KD5/PXjtqoQBIKcJcB56bk2yIeXnyEIBDlLIAh7vk9kdjRfPSYr1LZEj/7Ivr79KiEIBJkiSPggkfqS/TQ2v0m0vtm+vv0qIQgEmSII7x8ENXrFr/1UqN8xBIEgEKSBzRAEgkAQCGL/fwV9fqMwyzdVscVqEwJZhp7VhxWlvpOeJas2mR5N28QWC1ssbLHafYsVFHtuNIp6FZlPK1JHyND+ClX2HS6VBpv9Ccjyr2I7rCBSWE3NZWmxONBBHatI0UpDZokh9RdlaCQpjT7eLL/5flz0ClIsFsOKyj1IRAP1QBlF94zF8bcaQfRFEGmsJjPJR9HdytCWGTIa7DDVm0ulkp5vEWZ6frGCXNzbe/7CM9+ZaPLT+DNBPggikVUtNNvPdR3vWrDo2MjIO82Sno/HxQoSFKOfk6LNNlCMqV45VirVvqE37ccHQSSyyheLa5TKPWeTHxnalZTib1jVznGRSEEuDcNiByn7ZVfR7iSON/koiFhWUXQfGbrVdj5XyISvaF2yrZ+rOpGC5Is9G5Qyv2VAGEx0vNpHQQSzqn37se61Y93rSaM+P1YafYyR+ZyUihTEdu86lVCi47rn4voWy3VWc2JBgyeBINPhtNU3CiFIaxWCIBDkLAGJq21rp3/zo0MQCAJBsMVy98OK2GI1XwVmU4EVBCsIVhCsIFhB2vUVv9n89c9iLFYQrCBYQbCCYAXBCpJuPcEKghUEKwhWEKwgWEGwguCjJpZzoJ0+lmN5Si0rwxYLWyxssbDFwhYLW6x0iwxWEKwgWEGwgmAFwQqCFQQX6ZZzABfplqBO/4sHgT+ufwAvyxvHuc5qvqcnBME1CK5BcA2CaxBcg6Rbi7CCYAXBCoIVBCsIVhCsIHgVy3IO4FUsS1B4FasuKNzVxH7+tJyVfSutqcQ1CK5BcA2CaxBcg+AaJN0KI3IFyS/ruVblzNOMU3oh0fGaevUS7/WU5RuFglnVbiZ+hW2GpqquGzs0+oxt/VzViRQkCC4LqLNStoWgSN1b1qPf9FEQqawKYc/PDJnbbDOkiY5CkrycWNfPUaFIQWrnHoTRk0S03oZDTtH6Q3H8lI+CSGW1LIqurxraY5PfqZtc70l0/DnL2jktEyvIkr6+CzvHT7zejIYi+nVZx1+Zqc71LVbtvCWyqvVVCKMHDNGXm2U40d110ZHh4Tea1c3H42IFOQ24UFhc7VhwjyKzsR4cRearZa3vbwTOB0EksprMpBCGtxhSv6qXkSH1cK5ycku5XD46H5Pf5jlFCzJ5AvkouilnzCoyagUp9Vrtn3hSp/pz+eDBoWYn6Ysg0lhNzaWwfHk/TZjP1P6JJxlzCSlzoKrUvrE4frRZfvP9eFsIMhtIvgkihdVs+pA0FoJMT6Pl7w5n+TJvlpMpyz8mWfY1n8eCIBDkLAEIMn0yQBAIAkEaLFEQBIJAEAji7mexstyfY4uFLZbNfPL2Ij0f9tyvyMz4puu58AypB8b06C02UNu1BlssbLGmbLHCbxOpn9hPZvOdROuf2te3XyUEgSBnCRSi6LPG0LO201gpWleO4z/a1rdjHQSBIO8jwPiQqNgPGGYpIgSBINMIBGH0DyLqazDRhhMdfyLLiSj1WBAEgtSdm0EUbSajbiMyl/+/QL1EytybxPEuqRM66758EOQJIuJ81+DJRMc31AMdhJHhBWDuSLTefu6YfBiuUqQGOccyZAbGtN7HGZNF7dKll38k1/WfFdUTHzxw+PBL/8rimO10DOcFyYc92xSZO21DMaRuH9OjO1opyMDAwILX33zrbSLqtuxr/KIPXbBocHDwpGU9yjIi4LwgQbHnRlLmMWteRm1ISqOPt1KQ2rGDsOc5IlP3e/TTn1s9n+jRK63PAYWZEXBekDOTMXrx1Nc6ByyoDSY6Xj1TXVZbrNM9FaNbSdF9Fj0RGdqUlOLdVrUoypSAF4IUi8WwonJxM3IdphqVSiU9F4KcETd8hkhd07gv87tE62ub9Y7HW0PAC0Fq6C7u7T1/4fjJu0jR5mkoDe063r1g67GRkXcaYc5yBZl8nnyxZ4NS5i4iKp7z3CVj1Nax0qj99rA1c8Tro3ojyGTKl4ZhMWdy/UpVVxiTO1BV1aFXtC7ZzIJWCDIp73nj4/0ql+uv/W6q1aF3u7uHmglr0zNqZkfAO0Fmg6tVgsymJ4xtLQEIwuALQRiwHCmFIIwgIQgDliOlEIQRJARhwHKkFIIwgoQgDFiOlEIQRpAQhAHLkVIIwggSgjBgOVIKQRhBQhAGLEdKIQgjSAjCgOVIKQRhBAlBGLAcKYUgjCAhCAOWI6UQhBEkBGHAcqQUgjCChCAMWI6UQhBGkBCEAcuRUgjCCBKCMGA5UgpBGEFCEAYsR0ohCCNICMKA5UgpBGEECUEYsBwphSCMIIMwepOILrAfYr6baM24W7r9kVE5NwQgCINzEEa/J6Kr7YeYtYnWe+3rUSmNAARhJJIvRj9WirbaDukk81Gt9THbetTJIwBBGJnY3l/r9CEV7U7ieBPj8CgVSACCMEMpFKMtRtHdzYYlOgbbZpDa4HGEmCKkwvLl/aZSrd3sbd25w5WhreVSvDPFYTFEIAEIMotQaqJQpbKCjFpMygxRpXKgXC4fncUhMVQYAQgiLBC0I4sABJGVB7oRRgCCCAsE7cgiAEFk5YFuhBGAIMICQTuyCEAQWXmgG2EEIIiwQNCOLAIQRFYe6EYYAQgiLBC0I4sABJGVB7oRRgCCCAsE7cgiAEFk5YFuhBGAIMICQTuyCEAQWXmgG2EEIIiwQNCOLAIQRFYe6EYYAQgiLBC0I4sABJGVB7oRRgCCCAsE7cgiAEFk5YFuhBGAIMICQTuyCEAQWXmgG2EEIIiwQNCOLAIQRFYe6EYYAQgiLBC0I4sABJGVB7oRRgCCCAsE7cgiAEFk5YFuhBGAIMICQTuyCEAQWXmgG2EEIIiwQNCOLAIQRFYe6EYYAQgiLBC0I4sABJGVB7oRRgCCCAsE7cgiAEFk5YFuhBGAIMICQTuyCPwP6/JbX5XWNGkAAAAASUVORK5CYII=;" parent="1" vertex="1">
          <mxGeometry x="389.5" y="392.5" width="55" height="55" as="geometry" />
        </mxCell>
        <mxCell id="Dn1cdoSrZXoZaSc35mQp-14" value="&lt;b&gt;UAP&lt;/b&gt;" style="text;html=1;align=center;verticalAlign=middle;whiteSpace=wrap;rounded=0;" parent="1" vertex="1">
          <mxGeometry x="384.5" y="370" width="60" height="30" as="geometry" />
        </mxCell>
        <mxCell id="Dn1cdoSrZXoZaSc35mQp-15" style="edgeStyle=orthogonalEdgeStyle;rounded=0;orthogonalLoop=1;jettySize=auto;html=1;exitX=1;exitY=0.5;exitDx=0;exitDy=0;" parent="1" source="Dn1cdoSrZXoZaSc35mQp-16" target="Dn1cdoSrZXoZaSc35mQp-12" edge="1">
          <mxGeometry relative="1" as="geometry" />
        </mxCell>
        <mxCell id="Dn1cdoSrZXoZaSc35mQp-16" value="数据集处理" style="rounded=1;whiteSpace=wrap;html=1;fontStyle=1;fillColor=#DAE8FC;strokeColor=#DAE8FC;shadow=1;" parent="1" vertex="1">
          <mxGeometry x="57" y="390" width="120" height="60" as="geometry" />
        </mxCell>
        <mxCell id="Dn1cdoSrZXoZaSc35mQp-17" value="&lt;b&gt;音频防护添加&lt;/b&gt;" style="text;html=1;align=center;verticalAlign=middle;whiteSpace=wrap;rounded=0;" parent="1" vertex="1">
          <mxGeometry x="375.5" y="550" width="83" height="30" as="geometry" />
        </mxCell>
        <mxCell id="Dn1cdoSrZXoZaSc35mQp-18" value="" style="endArrow=none;dashed=1;html=1;rounded=0;strokeWidth=2;" parent="1" edge="1">
          <mxGeometry width="50" height="50" relative="1" as="geometry">
            <mxPoint x="40" y="470" as="sourcePoint" />
            <mxPoint x="40" y="350" as="targetPoint" />
          </mxGeometry>
        </mxCell>
        <mxCell id="Dn1cdoSrZXoZaSc35mQp-19" value="" style="endArrow=none;dashed=1;html=1;rounded=0;strokeWidth=2;" parent="1" edge="1">
          <mxGeometry width="50" height="50" relative="1" as="geometry">
            <mxPoint x="459.99999999999994" y="470" as="sourcePoint" />
            <mxPoint x="459.99999999999994" y="350" as="targetPoint" />
          </mxGeometry>
        </mxCell>
        <mxCell id="Dn1cdoSrZXoZaSc35mQp-20" value="" style="endArrow=none;dashed=1;html=1;rounded=0;strokeWidth=2;" parent="1" edge="1">
          <mxGeometry width="50" height="50" relative="1" as="geometry">
            <mxPoint x="460" y="470" as="sourcePoint" />
            <mxPoint x="40" y="470" as="targetPoint" />
          </mxGeometry>
        </mxCell>
        <mxCell id="Dn1cdoSrZXoZaSc35mQp-21" value="" style="endArrow=none;dashed=1;html=1;rounded=0;strokeWidth=2;" parent="1" edge="1">
          <mxGeometry width="50" height="50" relative="1" as="geometry">
            <mxPoint x="460" y="350" as="sourcePoint" />
            <mxPoint x="40" y="350" as="targetPoint" />
          </mxGeometry>
        </mxCell>
        <mxCell id="Dn1cdoSrZXoZaSc35mQp-22" value="&lt;b&gt;云端UAP生成&lt;/b&gt;" style="text;html=1;align=center;verticalAlign=middle;whiteSpace=wrap;rounded=0;" parent="1" vertex="1">
          <mxGeometry x="154.5" y="350" width="85" height="30" as="geometry" />
        </mxCell>
        <mxCell id="Dn1cdoSrZXoZaSc35mQp-23" value="" style="endArrow=none;dashed=1;html=1;rounded=0;strokeWidth=2;" parent="1" edge="1">
          <mxGeometry width="50" height="50" relative="1" as="geometry">
            <mxPoint x="360" y="599" as="sourcePoint" />
            <mxPoint x="40" y="599" as="targetPoint" />
          </mxGeometry>
        </mxCell>
        <mxCell id="Dn1cdoSrZXoZaSc35mQp-24" value="" style="endArrow=none;dashed=1;html=1;rounded=0;strokeWidth=2;" parent="1" edge="1">
          <mxGeometry width="50" height="50" relative="1" as="geometry">
            <mxPoint x="360" y="480" as="sourcePoint" />
            <mxPoint x="40" y="480" as="targetPoint" />
          </mxGeometry>
        </mxCell>
        <mxCell id="Dn1cdoSrZXoZaSc35mQp-25" value="" style="endArrow=none;dashed=1;html=1;rounded=0;strokeWidth=2;" parent="1" edge="1">
          <mxGeometry width="50" height="50" relative="1" as="geometry">
            <mxPoint x="40" y="599.31" as="sourcePoint" />
            <mxPoint x="40" y="479" as="targetPoint" />
          </mxGeometry>
        </mxCell>
        <mxCell id="Dn1cdoSrZXoZaSc35mQp-26" value="" style="endArrow=none;dashed=1;html=1;rounded=0;strokeWidth=2;" parent="1" edge="1">
          <mxGeometry width="50" height="50" relative="1" as="geometry">
            <mxPoint x="360" y="599.31" as="sourcePoint" />
            <mxPoint x="360" y="479.30999999999995" as="targetPoint" />
          </mxGeometry>
        </mxCell>
        <mxCell id="Dn1cdoSrZXoZaSc35mQp-27" value="&lt;b&gt;用户语音读取&lt;/b&gt;" style="text;html=1;align=center;verticalAlign=middle;whiteSpace=wrap;rounded=0;" parent="1" vertex="1">
          <mxGeometry x="157" y="569.31" width="80" height="30" as="geometry" />
        </mxCell>
        <mxCell id="Dn1cdoSrZXoZaSc35mQp-28" value="" style="endArrow=none;dashed=1;html=1;rounded=0;strokeWidth=2;" parent="1" edge="1">
          <mxGeometry width="50" height="50" relative="1" as="geometry">
            <mxPoint x="787" y="350" as="sourcePoint" />
            <mxPoint x="467" y="350" as="targetPoint" />
          </mxGeometry>
        </mxCell>
        <mxCell id="Dn1cdoSrZXoZaSc35mQp-29" value="" style="endArrow=none;dashed=1;html=1;rounded=0;strokeWidth=2;" parent="1" edge="1">
          <mxGeometry width="50" height="50" relative="1" as="geometry">
            <mxPoint x="790" y="599.31" as="sourcePoint" />
            <mxPoint x="470" y="599.31" as="targetPoint" />
          </mxGeometry>
        </mxCell>
        <mxCell id="Dn1cdoSrZXoZaSc35mQp-30" value="" style="endArrow=none;dashed=1;html=1;rounded=0;strokeWidth=2;" parent="1" edge="1">
          <mxGeometry width="50" height="50" relative="1" as="geometry">
            <mxPoint x="470" y="599.31" as="sourcePoint" />
            <mxPoint x="470" y="350" as="targetPoint" />
          </mxGeometry>
        </mxCell>
        <mxCell id="Dn1cdoSrZXoZaSc35mQp-31" value="" style="endArrow=none;dashed=1;html=1;rounded=0;strokeWidth=2;" parent="1" edge="1">
          <mxGeometry width="50" height="50" relative="1" as="geometry">
            <mxPoint x="790" y="599.31" as="sourcePoint" />
            <mxPoint x="790" y="350" as="targetPoint" />
          </mxGeometry>
        </mxCell>
        <mxCell id="Dn1cdoSrZXoZaSc35mQp-32" value="&lt;b&gt;目标进程连接&lt;/b&gt;" style="text;html=1;align=center;verticalAlign=middle;whiteSpace=wrap;rounded=0;" parent="1" vertex="1">
          <mxGeometry x="590" y="569.31" width="80" height="30" as="geometry" />
        </mxCell>
        <mxCell id="Dn1cdoSrZXoZaSc35mQp-33" style="edgeStyle=orthogonalEdgeStyle;rounded=0;orthogonalLoop=1;jettySize=auto;html=1;" parent="1" source="Dn1cdoSrZXoZaSc35mQp-34" target="Dn1cdoSrZXoZaSc35mQp-36" edge="1">
          <mxGeometry relative="1" as="geometry" />
        </mxCell>
        <mxCell id="Dn1cdoSrZXoZaSc35mQp-34" value="虚拟设备输出" style="rounded=1;whiteSpace=wrap;html=1;fontStyle=1;fillColor=#d5e8d4;strokeColor=#D5E8D4;shadow=1;" parent="1" vertex="1">
          <mxGeometry x="490" y="387.5" width="120" height="60" as="geometry" />
        </mxCell>
        <mxCell id="Dn1cdoSrZXoZaSc35mQp-35" style="edgeStyle=orthogonalEdgeStyle;rounded=0;orthogonalLoop=1;jettySize=auto;html=1;exitX=0.5;exitY=1;exitDx=0;exitDy=0;entryX=0.5;entryY=0;entryDx=0;entryDy=0;" parent="1" source="Dn1cdoSrZXoZaSc35mQp-36" target="Dn1cdoSrZXoZaSc35mQp-10" edge="1">
          <mxGeometry relative="1" as="geometry" />
        </mxCell>
        <mxCell id="Dn1cdoSrZXoZaSc35mQp-36" value="虚拟设备输入" style="rounded=1;whiteSpace=wrap;html=1;fontStyle=1;fillColor=#d5e8d4;strokeColor=#D5E8D4;shadow=1;" parent="1" vertex="1">
          <mxGeometry x="650" y="387.5" width="120" height="60" as="geometry" />
        </mxCell>
        <mxCell id="paZdvx3vrenqwqab3myZ-6" style="edgeStyle=orthogonalEdgeStyle;rounded=0;orthogonalLoop=1;jettySize=auto;html=1;exitX=1;exitY=0.5;exitDx=0;exitDy=0;entryX=0;entryY=0.5;entryDx=0;entryDy=0;fontStyle=1" edge="1" parent="1" source="paZdvx3vrenqwqab3myZ-1" target="paZdvx3vrenqwqab3myZ-2">
          <mxGeometry relative="1" as="geometry" />
        </mxCell>
        <mxCell id="paZdvx3vrenqwqab3myZ-15" value="4" style="edgeLabel;html=1;align=center;verticalAlign=middle;resizable=0;points=[];fontStyle=1" vertex="1" connectable="0" parent="paZdvx3vrenqwqab3myZ-6">
          <mxGeometry x="-0.05" relative="1" as="geometry">
            <mxPoint x="-2" y="-10" as="offset" />
          </mxGeometry>
        </mxCell>
        <mxCell id="paZdvx3vrenqwqab3myZ-10" style="edgeStyle=orthogonalEdgeStyle;rounded=0;orthogonalLoop=1;jettySize=auto;html=1;exitX=0.25;exitY=1;exitDx=0;exitDy=0;entryX=0.25;entryY=0;entryDx=0;entryDy=0;fontStyle=1" edge="1" parent="1">
          <mxGeometry relative="1" as="geometry">
            <mxPoint x="160" y="720" as="sourcePoint" />
            <mxPoint x="160" y="760" as="targetPoint" />
            <Array as="points">
              <mxPoint x="160" y="740" />
              <mxPoint x="160" y="740" />
            </Array>
          </mxGeometry>
        </mxCell>
        <mxCell id="paZdvx3vrenqwqab3myZ-13" value="2" style="edgeLabel;html=1;align=center;verticalAlign=middle;resizable=0;points=[];fontStyle=1" vertex="1" connectable="0" parent="paZdvx3vrenqwqab3myZ-10">
          <mxGeometry x="-0.0429" y="1" relative="1" as="geometry">
            <mxPoint x="-11" as="offset" />
          </mxGeometry>
        </mxCell>
        <mxCell id="paZdvx3vrenqwqab3myZ-1" value="I/O控制模块" style="rounded=1;whiteSpace=wrap;html=1;fontStyle=1;fillColor=#d5e8d4;strokeColor=#D5E8D4;shadow=1;align=center;verticalAlign=middle;fontFamily=Helvetica;fontSize=12;fontColor=default;" vertex="1" parent="1">
          <mxGeometry x="120" y="680" width="120" height="40" as="geometry" />
        </mxCell>
        <mxCell id="paZdvx3vrenqwqab3myZ-2" value="进程通信模块" style="rounded=1;whiteSpace=wrap;html=1;fontStyle=1;fillColor=#d5e8d4;strokeColor=#D5E8D4;shadow=1;align=center;verticalAlign=middle;fontFamily=Helvetica;fontSize=12;fontColor=default;" vertex="1" parent="1">
          <mxGeometry x="279.5" y="680" width="120" height="40" as="geometry" />
        </mxCell>
        <mxCell id="paZdvx3vrenqwqab3myZ-11" style="edgeStyle=orthogonalEdgeStyle;rounded=0;orthogonalLoop=1;jettySize=auto;html=1;exitX=0.75;exitY=0;exitDx=0;exitDy=0;entryX=0.75;entryY=1;entryDx=0;entryDy=0;fontStyle=1" edge="1" parent="1">
          <mxGeometry relative="1" as="geometry">
            <mxPoint x="200" y="760" as="sourcePoint" />
            <mxPoint x="200" y="720" as="targetPoint" />
            <Array as="points">
              <mxPoint x="200" y="741" />
              <mxPoint x="200" y="741" />
            </Array>
          </mxGeometry>
        </mxCell>
        <mxCell id="paZdvx3vrenqwqab3myZ-14" value="3" style="edgeLabel;html=1;align=center;verticalAlign=middle;resizable=0;points=[];fontStyle=1" vertex="1" connectable="0" parent="paZdvx3vrenqwqab3myZ-11">
          <mxGeometry x="-0.1286" y="-1" relative="1" as="geometry">
            <mxPoint x="6" y="-2" as="offset" />
          </mxGeometry>
        </mxCell>
        <mxCell id="paZdvx3vrenqwqab3myZ-3" value="客户端音频处理模块" style="rounded=1;whiteSpace=wrap;html=1;fontStyle=1;fillColor=#d5e8d4;strokeColor=#D5E8D4;shadow=1;align=center;verticalAlign=middle;fontFamily=Helvetica;fontSize=12;fontColor=default;" vertex="1" parent="1">
          <mxGeometry x="120" y="760" width="120" height="40" as="geometry" />
        </mxCell>
        <mxCell id="paZdvx3vrenqwqab3myZ-7" style="edgeStyle=orthogonalEdgeStyle;rounded=0;orthogonalLoop=1;jettySize=auto;html=1;exitX=1;exitY=0.5;exitDx=0;exitDy=0;exitPerimeter=0;entryX=0;entryY=0.5;entryDx=0;entryDy=0;fontStyle=1" edge="1" parent="1" source="paZdvx3vrenqwqab3myZ-4" target="paZdvx3vrenqwqab3myZ-1">
          <mxGeometry relative="1" as="geometry" />
        </mxCell>
        <mxCell id="paZdvx3vrenqwqab3myZ-12" value="1" style="edgeLabel;html=1;align=center;verticalAlign=middle;resizable=0;points=[];fontStyle=1" vertex="1" connectable="0" parent="paZdvx3vrenqwqab3myZ-7">
          <mxGeometry x="-0.1467" relative="1" as="geometry">
            <mxPoint y="-10" as="offset" />
          </mxGeometry>
        </mxCell>
        <mxCell id="paZdvx3vrenqwqab3myZ-4" value="用户输入" style="strokeWidth=2;html=1;shape=mxgraph.flowchart.terminator;whiteSpace=wrap;fillColor=#E1D5E7;strokeColor=#E1D5E7;fontStyle=1;shadow=1;" vertex="1" parent="1">
          <mxGeometry y="680" width="80" height="40" as="geometry" />
        </mxCell>
        <mxCell id="paZdvx3vrenqwqab3myZ-8" value="目标进程" style="strokeWidth=2;html=1;shape=mxgraph.flowchart.terminator;whiteSpace=wrap;fillColor=#E1D5E7;strokeColor=#E1D5E7;fontStyle=1;shadow=1;" vertex="1" parent="1">
          <mxGeometry x="440" y="680" width="80" height="40" as="geometry" />
        </mxCell>
        <mxCell id="paZdvx3vrenqwqab3myZ-9" style="edgeStyle=orthogonalEdgeStyle;rounded=0;orthogonalLoop=1;jettySize=auto;html=1;exitX=1;exitY=0.5;exitDx=0;exitDy=0;entryX=0;entryY=0.5;entryDx=0;entryDy=0;entryPerimeter=0;fontStyle=1" edge="1" parent="1" source="paZdvx3vrenqwqab3myZ-2" target="paZdvx3vrenqwqab3myZ-8">
          <mxGeometry relative="1" as="geometry" />
        </mxCell>
        <mxCell id="paZdvx3vrenqwqab3myZ-17" value="5" style="edgeLabel;html=1;align=center;verticalAlign=middle;resizable=0;points=[];fontStyle=1" vertex="1" connectable="0" parent="paZdvx3vrenqwqab3myZ-9">
          <mxGeometry x="-0.0335" y="3" relative="1" as="geometry">
            <mxPoint y="-7" as="offset" />
          </mxGeometry>
        </mxCell>
        <mxCell id="paZdvx3vrenqwqab3myZ-23" style="edgeStyle=orthogonalEdgeStyle;rounded=0;orthogonalLoop=1;jettySize=auto;html=1;exitX=0.25;exitY=1;exitDx=0;exitDy=0;entryX=0.25;entryY=0;entryDx=0;entryDy=0;fontStyle=1" edge="1" parent="1">
          <mxGeometry relative="1" as="geometry">
            <mxPoint x="180" y="920" as="sourcePoint" />
            <mxPoint x="180" y="960" as="targetPoint" />
            <Array as="points">
              <mxPoint x="180" y="940" />
              <mxPoint x="180" y="940" />
            </Array>
          </mxGeometry>
        </mxCell>
        <mxCell id="paZdvx3vrenqwqab3myZ-24" value="2" style="edgeLabel;html=1;align=center;verticalAlign=middle;resizable=0;points=[];fontStyle=1" vertex="1" connectable="0" parent="paZdvx3vrenqwqab3myZ-23">
          <mxGeometry x="-0.0429" y="1" relative="1" as="geometry">
            <mxPoint x="-11" as="offset" />
          </mxGeometry>
        </mxCell>
        <mxCell id="paZdvx3vrenqwqab3myZ-25" value="原始输入音频流分块" style="rounded=1;whiteSpace=wrap;html=1;fontStyle=1;fillColor=#FFE6CC;strokeColor=#FFE6CC;shadow=1;align=center;verticalAlign=middle;fontFamily=Helvetica;fontSize=12;fontColor=default;" vertex="1" parent="1">
          <mxGeometry x="120" y="880" width="120" height="40" as="geometry" />
        </mxCell>
        <mxCell id="paZdvx3vrenqwqab3myZ-26" value="对抗音频数据块拼接" style="rounded=1;whiteSpace=wrap;html=1;fontStyle=1;fillColor=#FFE6CC;strokeColor=#FFE6CC;shadow=1;align=center;verticalAlign=middle;fontFamily=Helvetica;fontSize=12;fontColor=default;" vertex="1" parent="1">
          <mxGeometry x="279.5" y="880" width="120" height="40" as="geometry" />
        </mxCell>
        <mxCell id="paZdvx3vrenqwqab3myZ-27" style="edgeStyle=orthogonalEdgeStyle;rounded=0;orthogonalLoop=1;jettySize=auto;html=1;exitX=0.75;exitY=0;exitDx=0;exitDy=0;entryX=0.75;entryY=1;entryDx=0;entryDy=0;fontStyle=1" edge="1" parent="1">
          <mxGeometry relative="1" as="geometry">
            <mxPoint x="340" y="960" as="sourcePoint" />
            <mxPoint x="340" y="920" as="targetPoint" />
            <Array as="points">
              <mxPoint x="340" y="941" />
              <mxPoint x="340" y="941" />
            </Array>
          </mxGeometry>
        </mxCell>
        <mxCell id="paZdvx3vrenqwqab3myZ-28" value="3" style="edgeLabel;html=1;align=center;verticalAlign=middle;resizable=0;points=[];fontStyle=1" vertex="1" connectable="0" parent="paZdvx3vrenqwqab3myZ-27">
          <mxGeometry x="-0.1286" y="-1" relative="1" as="geometry">
            <mxPoint x="6" y="-2" as="offset" />
          </mxGeometry>
        </mxCell>
        <mxCell id="paZdvx3vrenqwqab3myZ-29" value="音频数据块添加扰动" style="rounded=1;whiteSpace=wrap;html=1;fontStyle=1;fillColor=#FFE6CC;strokeColor=#FFE6CC;shadow=1;align=center;verticalAlign=middle;fontFamily=Helvetica;fontSize=12;fontColor=default;" vertex="1" parent="1">
          <mxGeometry x="120" y="960" width="280" height="40" as="geometry" />
        </mxCell>
        <mxCell id="paZdvx3vrenqwqab3myZ-30" style="edgeStyle=orthogonalEdgeStyle;rounded=0;orthogonalLoop=1;jettySize=auto;html=1;exitX=1;exitY=0.5;exitDx=0;exitDy=0;exitPerimeter=0;entryX=0;entryY=0.5;entryDx=0;entryDy=0;fontStyle=1" edge="1" parent="1" source="paZdvx3vrenqwqab3myZ-32" target="paZdvx3vrenqwqab3myZ-25">
          <mxGeometry relative="1" as="geometry" />
        </mxCell>
        <mxCell id="paZdvx3vrenqwqab3myZ-31" value="1" style="edgeLabel;html=1;align=center;verticalAlign=middle;resizable=0;points=[];fontStyle=1" vertex="1" connectable="0" parent="paZdvx3vrenqwqab3myZ-30">
          <mxGeometry x="-0.1467" relative="1" as="geometry">
            <mxPoint y="-10" as="offset" />
          </mxGeometry>
        </mxCell>
        <mxCell id="paZdvx3vrenqwqab3myZ-32" value="I/O控制模块" style="strokeWidth=2;html=1;shape=mxgraph.flowchart.terminator;whiteSpace=wrap;fillColor=#d5e8d4;strokeColor=#D5E8D4;fontStyle=1;shadow=1;rounded=1;align=center;verticalAlign=middle;fontFamily=Helvetica;fontSize=12;fontColor=default;" vertex="1" parent="1">
          <mxGeometry y="880" width="80" height="40" as="geometry" />
        </mxCell>
        <mxCell id="paZdvx3vrenqwqab3myZ-33" value="I/O控制模块" style="strokeWidth=2;html=1;shape=mxgraph.flowchart.terminator;whiteSpace=wrap;fillColor=#d5e8d4;strokeColor=#D5E8D4;fontStyle=1;shadow=1;rounded=1;align=center;verticalAlign=middle;fontFamily=Helvetica;fontSize=12;fontColor=default;" vertex="1" parent="1">
          <mxGeometry x="440" y="880" width="80" height="40" as="geometry" />
        </mxCell>
        <mxCell id="paZdvx3vrenqwqab3myZ-34" style="edgeStyle=orthogonalEdgeStyle;rounded=0;orthogonalLoop=1;jettySize=auto;html=1;exitX=1;exitY=0.5;exitDx=0;exitDy=0;entryX=0;entryY=0.5;entryDx=0;entryDy=0;entryPerimeter=0;fontStyle=1" edge="1" parent="1" source="paZdvx3vrenqwqab3myZ-26" target="paZdvx3vrenqwqab3myZ-33">
          <mxGeometry relative="1" as="geometry" />
        </mxCell>
        <mxCell id="paZdvx3vrenqwqab3myZ-35" value="4" style="edgeLabel;html=1;align=center;verticalAlign=middle;resizable=0;points=[];fontStyle=1" vertex="1" connectable="0" parent="paZdvx3vrenqwqab3myZ-34">
          <mxGeometry x="-0.0335" y="3" relative="1" as="geometry">
            <mxPoint y="-7" as="offset" />
          </mxGeometry>
        </mxCell>
        <mxCell id="paZdvx3vrenqwqab3myZ-44" value="1" style="edgeStyle=orthogonalEdgeStyle;rounded=0;orthogonalLoop=1;jettySize=auto;html=1;exitX=1;exitY=0.5;exitDx=0;exitDy=0;entryX=0;entryY=0.5;entryDx=0;entryDy=0;fontStyle=1" edge="1" parent="1" source="paZdvx3vrenqwqab3myZ-36" target="paZdvx3vrenqwqab3myZ-40">
          <mxGeometry x="0.0127" y="10" relative="1" as="geometry">
            <mxPoint as="offset" />
          </mxGeometry>
        </mxCell>
        <mxCell id="paZdvx3vrenqwqab3myZ-36" value="客户端音频处理模块" style="rounded=1;whiteSpace=wrap;html=1;fontStyle=1;fillColor=#d5e8d4;strokeColor=#D5E8D4;shadow=1;align=center;verticalAlign=middle;fontFamily=Helvetica;fontSize=12;fontColor=default;" vertex="1" parent="1">
          <mxGeometry x="-40" y="1080" width="120" height="40" as="geometry" />
        </mxCell>
        <mxCell id="paZdvx3vrenqwqab3myZ-43" value="2" style="edgeStyle=orthogonalEdgeStyle;rounded=0;orthogonalLoop=1;jettySize=auto;html=1;exitX=0.5;exitY=1;exitDx=0;exitDy=0;entryX=0.5;entryY=0;entryDx=0;entryDy=0;fontStyle=1" edge="1" parent="1" source="paZdvx3vrenqwqab3myZ-40" target="paZdvx3vrenqwqab3myZ-42">
          <mxGeometry x="-0.0123" y="-9" relative="1" as="geometry">
            <mxPoint x="-9" y="-9" as="offset" />
          </mxGeometry>
        </mxCell>
        <mxCell id="paZdvx3vrenqwqab3myZ-40" value="音频自动保存" style="rounded=1;whiteSpace=wrap;html=1;fontStyle=1;fillColor=#FFE6CC;strokeColor=#FFE6CC;shadow=1;align=center;verticalAlign=middle;fontFamily=Helvetica;fontSize=12;fontColor=default;" vertex="1" parent="1">
          <mxGeometry x="119.5" y="1080" width="120" height="40" as="geometry" />
        </mxCell>
        <mxCell id="paZdvx3vrenqwqab3myZ-41" value="ASR转录" style="rounded=1;whiteSpace=wrap;html=1;fontStyle=1;fillColor=#FFE6CC;strokeColor=#FFE6CC;shadow=1;align=center;verticalAlign=middle;fontFamily=Helvetica;fontSize=12;fontColor=default;" vertex="1" parent="1">
          <mxGeometry x="279.5" y="1080" width="120" height="40" as="geometry" />
        </mxCell>
        <mxCell id="paZdvx3vrenqwqab3myZ-46" value="3" style="edgeStyle=orthogonalEdgeStyle;rounded=0;orthogonalLoop=1;jettySize=auto;html=1;exitX=1;exitY=0.5;exitDx=0;exitDy=0;entryX=0;entryY=0.5;entryDx=0;entryDy=0;fontStyle=1" edge="1" parent="1" source="paZdvx3vrenqwqab3myZ-42" target="paZdvx3vrenqwqab3myZ-45">
          <mxGeometry y="8" relative="1" as="geometry">
            <mxPoint as="offset" />
          </mxGeometry>
        </mxCell>
        <mxCell id="paZdvx3vrenqwqab3myZ-42" value="缓存" style="shape=datastore;whiteSpace=wrap;html=1;fillColor=#dae8fc;strokeColor=#6c8ebf;fontStyle=1;shadow=1;" vertex="1" parent="1">
          <mxGeometry x="150" y="1160" width="60" height="40" as="geometry" />
        </mxCell>
        <mxCell id="paZdvx3vrenqwqab3myZ-54" value="4" style="edgeStyle=orthogonalEdgeStyle;rounded=0;orthogonalLoop=1;jettySize=auto;html=1;exitX=0.5;exitY=0;exitDx=0;exitDy=0;entryX=0.5;entryY=1;entryDx=0;entryDy=0;fontStyle=1" edge="1" parent="1" source="paZdvx3vrenqwqab3myZ-45" target="paZdvx3vrenqwqab3myZ-41">
          <mxGeometry y="-10" relative="1" as="geometry">
            <mxPoint x="1" as="offset" />
          </mxGeometry>
        </mxCell>
        <mxCell id="paZdvx3vrenqwqab3myZ-45" value="音频缓存读取" style="rounded=1;whiteSpace=wrap;html=1;fontStyle=1;fillColor=#FFE6CC;strokeColor=#FFE6CC;shadow=1;align=center;verticalAlign=middle;fontFamily=Helvetica;fontSize=12;fontColor=default;" vertex="1" parent="1">
          <mxGeometry x="279.5" y="1160" width="120" height="40" as="geometry" />
        </mxCell>
        <mxCell id="paZdvx3vrenqwqab3myZ-51" value="用户界面" style="strokeWidth=2;html=1;shape=mxgraph.flowchart.terminator;whiteSpace=wrap;fillColor=#E1D5E7;strokeColor=#E1D5E7;fontStyle=1;shadow=1;" vertex="1" parent="1">
          <mxGeometry x="440" y="1080" width="80" height="40" as="geometry" />
        </mxCell>
        <mxCell id="paZdvx3vrenqwqab3myZ-52" value="5" style="edgeStyle=orthogonalEdgeStyle;rounded=0;orthogonalLoop=1;jettySize=auto;html=1;exitX=1;exitY=0.5;exitDx=0;exitDy=0;entryX=0;entryY=0.5;entryDx=0;entryDy=0;entryPerimeter=0;fontStyle=1" edge="1" parent="1" source="paZdvx3vrenqwqab3myZ-41" target="paZdvx3vrenqwqab3myZ-51">
          <mxGeometry x="0.0123" y="10" relative="1" as="geometry">
            <mxPoint as="offset" />
          </mxGeometry>
        </mxCell>
        <mxCell id="paZdvx3vrenqwqab3myZ-59" value="2" style="edgeStyle=orthogonalEdgeStyle;rounded=0;orthogonalLoop=1;jettySize=auto;html=1;exitX=1;exitY=0.75;exitDx=0;exitDy=0;entryX=0;entryY=0.75;entryDx=0;entryDy=0;fontStyle=1" edge="1" parent="1" source="paZdvx3vrenqwqab3myZ-55" target="paZdvx3vrenqwqab3myZ-57">
          <mxGeometry x="0.0125" y="-10" relative="1" as="geometry">
            <mxPoint as="offset" />
          </mxGeometry>
        </mxCell>
        <mxCell id="paZdvx3vrenqwqab3myZ-61" value="6" style="edgeStyle=orthogonalEdgeStyle;rounded=0;orthogonalLoop=1;jettySize=auto;html=1;exitX=0;exitY=0.25;exitDx=0;exitDy=0;entryX=1;entryY=0.25;entryDx=0;entryDy=0;fontStyle=1" edge="1" parent="1" source="paZdvx3vrenqwqab3myZ-55" target="paZdvx3vrenqwqab3myZ-56">
          <mxGeometry y="-10" relative="1" as="geometry">
            <mxPoint as="offset" />
          </mxGeometry>
        </mxCell>
        <mxCell id="paZdvx3vrenqwqab3myZ-76" style="edgeStyle=orthogonalEdgeStyle;rounded=0;orthogonalLoop=1;jettySize=auto;html=1;exitX=0.25;exitY=1;exitDx=0;exitDy=0;entryX=0.333;entryY=-0.037;entryDx=0;entryDy=0;entryPerimeter=0;dashed=1;fontStyle=1" edge="1" parent="1" target="paZdvx3vrenqwqab3myZ-65">
          <mxGeometry relative="1" as="geometry">
            <mxPoint x="159.7499999999999" y="1359.9999999999998" as="sourcePoint" />
            <mxPoint x="159.5000000000001" y="1399.9999999999998" as="targetPoint" />
          </mxGeometry>
        </mxCell>
        <mxCell id="paZdvx3vrenqwqab3myZ-78" value="4" style="edgeLabel;html=1;align=center;verticalAlign=middle;resizable=0;points=[];fontStyle=1" vertex="1" connectable="0" parent="paZdvx3vrenqwqab3myZ-76">
          <mxGeometry x="0.0541" y="-1" relative="1" as="geometry">
            <mxPoint x="-9" as="offset" />
          </mxGeometry>
        </mxCell>
        <mxCell id="paZdvx3vrenqwqab3myZ-55" value="扰动控制模块" style="rounded=1;whiteSpace=wrap;html=1;fontStyle=1;fillColor=#d5e8d4;strokeColor=#D5E8D4;shadow=1;align=center;verticalAlign=middle;fontFamily=Helvetica;fontSize=12;fontColor=default;" vertex="1" parent="1">
          <mxGeometry x="119.75" y="1320" width="120" height="40" as="geometry" />
        </mxCell>
        <mxCell id="paZdvx3vrenqwqab3myZ-58" value="1" style="edgeStyle=orthogonalEdgeStyle;rounded=0;orthogonalLoop=1;jettySize=auto;html=1;exitX=1;exitY=0.75;exitDx=0;exitDy=0;entryX=0;entryY=0.75;entryDx=0;entryDy=0;fontStyle=1" edge="1" parent="1" source="paZdvx3vrenqwqab3myZ-56" target="paZdvx3vrenqwqab3myZ-55">
          <mxGeometry y="-10" relative="1" as="geometry">
            <mxPoint as="offset" />
          </mxGeometry>
        </mxCell>
        <mxCell id="paZdvx3vrenqwqab3myZ-56" value="客户端音频处理模块" style="rounded=1;whiteSpace=wrap;html=1;fontStyle=1;fillColor=#d5e8d4;strokeColor=#D5E8D4;shadow=1;align=center;verticalAlign=middle;fontFamily=Helvetica;fontSize=12;fontColor=default;" vertex="1" parent="1">
          <mxGeometry x="-39.75" y="1320" width="120" height="40" as="geometry" />
        </mxCell>
        <mxCell id="paZdvx3vrenqwqab3myZ-60" value="3" style="edgeStyle=orthogonalEdgeStyle;rounded=0;orthogonalLoop=1;jettySize=auto;html=1;exitX=0;exitY=0.25;exitDx=0;exitDy=0;entryX=1;entryY=0.25;entryDx=0;entryDy=0;fontStyle=1" edge="1" parent="1" source="paZdvx3vrenqwqab3myZ-57" target="paZdvx3vrenqwqab3myZ-55">
          <mxGeometry x="-0.0125" y="-10" relative="1" as="geometry">
            <mxPoint as="offset" />
          </mxGeometry>
        </mxCell>
        <mxCell id="paZdvx3vrenqwqab3myZ-57" value="扰动缓存模块" style="rounded=1;whiteSpace=wrap;html=1;fontStyle=1;fillColor=#d5e8d4;strokeColor=#D5E8D4;shadow=1;align=center;verticalAlign=middle;fontFamily=Helvetica;fontSize=12;fontColor=default;" vertex="1" parent="1">
          <mxGeometry x="279.75" y="1320" width="120" height="40" as="geometry" />
        </mxCell>
        <mxCell id="paZdvx3vrenqwqab3myZ-65" value="扰动生成模块" style="rounded=1;whiteSpace=wrap;html=1;fontStyle=1;fillColor=#d5e8d4;strokeColor=#D5E8D4;shadow=1;align=center;verticalAlign=middle;fontFamily=Helvetica;fontSize=12;fontColor=default;" vertex="1" parent="1">
          <mxGeometry x="120" y="1400" width="120" height="40" as="geometry" />
        </mxCell>
        <mxCell id="paZdvx3vrenqwqab3myZ-77" value="5" style="edgeStyle=orthogonalEdgeStyle;rounded=0;orthogonalLoop=1;jettySize=auto;html=1;exitX=0.75;exitY=0;exitDx=0;exitDy=0;entryX=0.669;entryY=1.046;entryDx=0;entryDy=0;entryPerimeter=0;dashed=1;fontStyle=1" edge="1" parent="1" target="paZdvx3vrenqwqab3myZ-55">
          <mxGeometry x="0.0609" y="-10" relative="1" as="geometry">
            <mxPoint x="199.5" y="1399.9999999999998" as="sourcePoint" />
            <mxPoint x="199.02999999999997" y="1364.1599999999999" as="targetPoint" />
            <mxPoint as="offset" />
          </mxGeometry>
        </mxCell>
      </root>
    </mxGraphModel>
  </diagram>
</mxfile>
